<svg width="208" height="20" viewBox="0 0 208 20" fill="none" xmlns="http://www.w3.org/2000/svg">
<path d="M34.5156 9.625C34.5781 9.61458 34.6458 9.60938 34.7188 9.60938C34.8646 9.60938 35.0104 9.65104 35.1562 9.73438C35.3542 9.85938 35.474 10.0365 35.5156 10.2656C35.526 10.3177 35.5312 10.375 35.5312 10.4375C35.5312 10.5938 35.4792 10.7448 35.375 10.8906C35.2396 11.0781 35.0573 11.1927 34.8281 11.2344C34.474 11.2865 34.2396 11.3229 34.125 11.3438C33.3229 11.4688 32.1198 11.6615 30.5156 11.9219C30.4427 11.9323 30.4115 11.974 30.4219 12.0469C30.4948 12.4115 30.5781 12.8281 30.6719 13.2969C30.7656 13.7656 30.8385 14.1406 30.8906 14.4219C30.9427 14.6927 30.9844 14.8906 31.0156 15.0156C31.0677 15.2344 31.1198 15.4375 31.1719 15.625C31.1927 15.7083 31.2031 15.7865 31.2031 15.8594C31.2031 16.0156 31.1562 16.1615 31.0625 16.2969C30.9375 16.5052 30.7552 16.6302 30.5156 16.6719H30.5C30.4375 16.6823 30.3802 16.6875 30.3281 16.6875C30.151 16.6875 29.9844 16.6302 29.8281 16.5156C29.6198 16.3698 29.5 16.1719 29.4688 15.9219C29.4375 15.6719 29.401 15.4583 29.3594 15.2812C29.349 15.1667 29.3125 14.974 29.25 14.7031C29.1979 14.4219 29.1302 14.0521 29.0469 13.5938C28.9635 13.125 28.8854 12.6979 28.8125 12.3125C28.7917 12.2292 28.7448 12.1979 28.6719 12.2188C26.6302 12.5521 25.2969 12.776 24.6719 12.8906C24.4323 12.9323 24.224 12.974 24.0469 13.0156C23.9844 13.026 23.9219 13.0312 23.8594 13.0312C23.6927 13.0312 23.5312 12.9844 23.375 12.8906C23.1771 12.7552 23.0521 12.5729 23 12.3438C22.9896 12.2812 22.9844 12.224 22.9844 12.1719C22.9844 12.0156 23.0365 11.8698 23.1406 11.7344C23.276 11.5469 23.4583 11.4375 23.6875 11.4062C23.9167 11.3854 24.1354 11.3594 24.3438 11.3281C24.8958 11.2448 26.2344 11.0365 28.3594 10.7031C28.4427 10.6927 28.474 10.651 28.4531 10.5781L27.9375 7.85938C27.9271 7.78646 27.8854 7.75521 27.8125 7.76562C26.5729 7.96354 25.4896 8.14062 24.5625 8.29688C24.3958 8.32812 24.2292 8.36458 24.0625 8.40625C24 8.41667 23.9375 8.42188 23.875 8.42188C23.7083 8.42188 23.5469 8.36979 23.3906 8.26562C23.1927 8.14062 23.0677 7.95833 23.0156 7.71875C23.0052 7.65625 23 7.59896 23 7.54688C23 7.38021 23.0573 7.22396 23.1719 7.07812C23.3177 6.89062 23.5104 6.78646 23.75 6.76562C23.9167 6.75521 24.0833 6.73958 24.25 6.71875C24.8021 6.65625 25.8854 6.5 27.5 6.25C27.5833 6.23958 27.6146 6.19792 27.5938 6.125C27.4062 5.15625 27.3073 4.66146 27.2969 4.64062C27.276 4.53646 27.2552 4.44271 27.2344 4.35938C27.2135 4.28646 27.2031 4.21354 27.2031 4.14062C27.2031 3.98438 27.25 3.83854 27.3438 3.70312C27.4688 3.50521 27.6458 3.38542 27.875 3.34375C27.9271 3.33333 27.9792 3.32812 28.0312 3.32812C28.2083 3.32812 28.375 3.38542 28.5312 3.5C28.7292 3.65625 28.849 3.85417 28.8906 4.09375C28.9115 4.19792 28.9323 4.28646 28.9531 4.35938C28.9844 4.58854 29.0781 5.09375 29.2344 5.875C29.2448 5.94792 29.2865 5.97917 29.3594 5.96875C31.1719 5.66667 32.2812 5.47396 32.6875 5.39062C32.8542 5.35938 33.0156 5.32812 33.1719 5.29688C33.2344 5.27604 33.2969 5.26562 33.3594 5.26562C33.5156 5.26562 33.6615 5.3125 33.7969 5.40625C33.9948 5.53125 34.1146 5.70312 34.1562 5.92188C34.1667 5.97396 34.1719 6.02604 34.1719 6.07812C34.1719 6.24479 34.1198 6.40104 34.0156 6.54688C33.8802 6.73438 33.6979 6.84375 33.4688 6.875C33.4167 6.88542 33.3438 6.90104 33.25 6.92188C33.1562 6.93229 33.0833 6.9375 33.0312 6.9375C32.7292 6.98958 31.6042 7.16667 29.6562 7.46875C29.5729 7.47917 29.5417 7.52604 29.5625 7.60938L30.0781 10.2969C30.0885 10.3802 30.1354 10.4115 30.2188 10.3906C31.9792 10.099 33.1875 9.89583 33.8438 9.78125C34.1458 9.70833 34.3698 9.65625 34.5156 9.625ZM46.0938 12.6094C45.9479 12.7865 45.7604 12.8958 45.5312 12.9375C45.4688 12.9479 45.4062 12.9531 45.3438 12.9531C45.1771 12.9531 45.0208 12.9115 44.875 12.8281C44.7083 12.7448 44.6094 12.6094 44.5781 12.4219C44.5781 12.3906 44.5781 12.3594 44.5781 12.3281C44.5781 12.1823 44.6354 12.0521 44.75 11.9375C45.5833 11.0625 46.2344 10.2396 46.7031 9.46875C46.7135 9.44792 46.7083 9.42708 46.6875 9.40625C46.6771 9.38542 46.6615 9.38021 46.6406 9.39062C46.5469 9.40104 46.2656 9.45312 45.7969 9.54688C45.3281 9.64062 44.7969 9.75 44.2031 9.875C43.6198 9.98958 43.0573 10.1042 42.5156 10.2188C42.4427 10.2292 42.4167 10.276 42.4375 10.3594C42.4688 10.4531 42.5104 10.599 42.5625 10.7969C42.8229 11.7552 43.0208 12.4896 43.1562 13C43.3021 13.5 43.4635 14.0573 43.6406 14.6719C43.8177 15.2865 43.9375 15.7031 44 15.9219C44.0312 16.0052 44.0677 16.1198 44.1094 16.2656C44.1406 16.349 44.1562 16.4323 44.1562 16.5156C44.1562 16.651 44.1198 16.7865 44.0469 16.9219C43.9323 17.1302 43.7604 17.2604 43.5312 17.3125C43.4583 17.3333 43.3906 17.3438 43.3281 17.3438C43.1719 17.3438 43.026 17.2969 42.8906 17.2031C42.6927 17.0781 42.5677 16.8958 42.5156 16.6562C42.4844 16.5208 42.4479 16.3906 42.4062 16.2656C42.1771 15.4635 41.6771 13.599 40.9062 10.6719C40.8854 10.599 40.8333 10.5677 40.75 10.5781C40.0417 10.724 39.2917 10.8802 38.5 11.0469C38.4375 11.0573 38.375 11.0625 38.3125 11.0625C38.1667 11.0625 38.026 11.0208 37.8906 10.9375C37.7031 10.8229 37.5833 10.6615 37.5312 10.4531C37.5104 10.3906 37.5 10.3333 37.5 10.2812C37.5 10.1458 37.5417 10.0156 37.625 9.89062C37.75 9.72396 37.9167 9.625 38.125 9.59375C38.2604 9.57292 38.4635 9.54167 38.7344 9.5C38.8281 9.48958 39.375 9.39062 40.375 9.20312C40.4479 9.19271 40.474 9.15104 40.4531 9.07812C40.349 8.65104 40.2031 8.11979 40.0156 7.48438C39.9948 7.41146 39.974 7.33854 39.9531 7.26562C39.9219 7.17188 39.9062 7.08333 39.9062 7C39.9062 6.875 39.9375 6.75521 40 6.64062C40.0938 6.43229 40.25 6.30208 40.4688 6.25C40.5312 6.23958 40.599 6.23438 40.6719 6.23438C40.8281 6.23438 40.974 6.27604 41.1094 6.35938C41.3177 6.49479 41.4479 6.67708 41.5 6.90625C41.5104 6.9375 41.5208 6.97917 41.5312 7.03125C41.5417 7.08333 41.5521 7.125 41.5625 7.15625L42 8.78125C42.0208 8.85417 42.0729 8.88542 42.1562 8.875C45.2708 8.27083 46.9792 7.9375 47.2812 7.875C47.3125 7.86458 47.349 7.85417 47.3906 7.84375C47.5365 7.8125 47.6719 7.79688 47.7969 7.79688C48.0573 7.79688 48.2865 7.86979 48.4844 8.01562C48.6302 8.10938 48.724 8.24479 48.7656 8.42188C48.7865 8.48438 48.7969 8.54167 48.7969 8.59375C48.7969 8.70833 48.7656 8.81771 48.7031 8.92188C47.974 10.2135 47.1042 11.4427 46.0938 12.6094ZM54.5156 7.875C54.474 7.78125 54.4531 7.6875 54.4531 7.59375C54.4531 7.48958 54.474 7.39062 54.5156 7.29688C54.599 7.09896 54.7448 6.96875 54.9531 6.90625C55.0365 6.875 55.125 6.85938 55.2188 6.85938C55.3333 6.85938 55.4531 6.88542 55.5781 6.9375C55.776 7.03125 55.9167 7.18229 56 7.39062C56.2604 8.07812 56.5052 8.73958 56.7344 9.375C56.7656 9.45833 56.7812 9.54688 56.7812 9.64062C56.7812 9.75521 56.75 9.86979 56.6875 9.98438C56.5938 10.1823 56.4427 10.3229 56.2344 10.4062C56.1406 10.4375 56.0521 10.4531 55.9688 10.4531C55.8542 10.4531 55.7448 10.4219 55.6406 10.3594C55.4427 10.2656 55.3125 10.1146 55.25 9.90625C55.0208 9.21875 54.776 8.54167 54.5156 7.875ZM59.6406 8.03125C59.6823 7.79167 59.8073 7.60938 60.0156 7.48438C60.1406 7.40104 60.276 7.35938 60.4219 7.35938C60.4948 7.35938 60.5729 7.375 60.6562 7.40625C60.8958 7.47917 61.0729 7.625 61.1875 7.84375C61.2604 7.98958 61.2969 8.14062 61.2969 8.29688C61.2969 8.38021 61.2812 8.46875 61.25 8.5625C61.25 8.58333 61.2448 8.60938 61.2344 8.64062C60.7448 10.5781 60 12.1823 59 13.4531C57.8438 14.9323 56.3698 16.099 54.5781 16.9531C54.4115 17.0365 54.2344 17.0781 54.0469 17.0781C53.9635 17.0781 53.8802 17.0677 53.7969 17.0469C53.526 16.9948 53.2917 16.8698 53.0938 16.6719L53.0469 16.625C52.9427 16.5104 52.8906 16.3854 52.8906 16.25C52.8906 16.1979 52.8958 16.1458 52.9062 16.0938C52.9583 15.8958 53.0833 15.7552 53.2812 15.6719C54.1042 15.349 54.901 14.9219 55.6719 14.3906C56.4531 13.8594 57.1146 13.2604 57.6562 12.5938C58.1146 12.0104 58.5156 11.3229 58.8594 10.5312C59.2135 9.72917 59.474 8.89583 59.6406 8.03125ZM50.8125 8.75C50.7708 8.65625 50.75 8.55729 50.75 8.45312C50.75 8.35938 50.7656 8.26562 50.7969 8.17188C50.8802 7.97396 51.0208 7.83854 51.2188 7.76562C51.3229 7.72396 51.4219 7.70312 51.5156 7.70312C51.6302 7.70312 51.7448 7.72917 51.8594 7.78125C52.0677 7.86458 52.2135 8.01042 52.2969 8.21875C52.5677 8.84375 52.8542 9.55729 53.1562 10.3594C53.1979 10.4531 53.2188 10.5469 53.2188 10.6406C53.2188 10.7552 53.1927 10.8698 53.1406 10.9844C53.0469 11.1823 52.8958 11.3229 52.6875 11.4062C52.5938 11.4375 52.5 11.4531 52.4062 11.4531C52.2917 11.4531 52.1823 11.4271 52.0781 11.375C51.8698 11.2812 51.7292 11.125 51.6562 10.9062C51.3646 10.1042 51.0833 9.38542 50.8125 8.75ZM66.0625 5.32812C65.875 5.21354 65.7552 5.04688 65.7031 4.82812C65.6927 4.76562 65.6875 4.70312 65.6875 4.64062C65.6875 4.49479 65.7292 4.35417 65.8125 4.21875C65.9375 4.03125 66.1146 3.91146 66.3438 3.85938C66.4167 3.83854 66.4844 3.82812 66.5469 3.82812C66.6927 3.82812 66.8385 3.86979 66.9844 3.95312C67.6823 4.38021 68.401 4.84375 69.1406 5.34375C69.3281 5.47917 69.4427 5.66146 69.4844 5.89062C69.4948 5.94271 69.5 5.99479 69.5 6.04688C69.5 6.21354 69.4479 6.36979 69.3438 6.51562C69.2188 6.70312 69.0417 6.81771 68.8125 6.85938C68.7604 6.86979 68.7083 6.875 68.6562 6.875C68.4896 6.875 68.3385 6.82292 68.2031 6.71875C67.4531 6.20833 66.7396 5.74479 66.0625 5.32812ZM65.4688 16.3906C65.375 16.4115 65.276 16.4219 65.1719 16.4219C65.0156 16.4219 64.8594 16.3906 64.7031 16.3281C64.4531 16.2135 64.2552 16.0365 64.1094 15.7969L64.0938 15.75C64.0312 15.6354 64 15.526 64 15.4219C64 15.3281 64.0208 15.2344 64.0625 15.1406C64.1562 14.9427 64.3125 14.8177 64.5312 14.7656C66.2188 14.3906 67.7188 13.8438 69.0312 13.125C70.1979 12.4583 71.2656 11.6823 72.2344 10.7969C73.2031 9.91146 74.0208 8.96875 74.6875 7.96875C74.7917 7.80208 74.9479 7.71875 75.1562 7.71875C75.3646 7.71875 75.5208 7.80729 75.625 7.98438L75.6719 8.07812C75.7969 8.29688 75.8594 8.54167 75.8594 8.8125C75.8594 9.125 75.7708 9.40104 75.5938 9.64062C74.125 11.599 72.224 13.2552 69.8906 14.6094C68.6094 15.3594 67.1354 15.9531 65.4688 16.3906ZM63.6406 8.95312C63.4531 8.83854 63.3333 8.67188 63.2812 8.45312C63.2604 8.39062 63.25 8.32812 63.25 8.26562C63.25 8.11979 63.2917 7.98438 63.375 7.85938C63.5104 7.66146 63.6927 7.53646 63.9219 7.48438C63.9948 7.46354 64.0625 7.45312 64.125 7.45312C64.2812 7.45312 64.4271 7.49479 64.5625 7.57812C65.2917 8.00521 66.0104 8.44271 66.7188 8.89062C66.9167 9.01562 67.0365 9.19271 67.0781 9.42188C67.0885 9.48438 67.0938 9.54688 67.0938 9.60938C67.0938 9.77604 67.0469 9.93229 66.9531 10.0781C66.8281 10.2656 66.651 10.3802 66.4219 10.4219C66.3698 10.4427 66.3125 10.4531 66.25 10.4531C66.0938 10.4531 65.9427 10.401 65.7969 10.2969C65.0573 9.80729 64.3385 9.35938 63.6406 8.95312ZM86.5312 14.3438C86.5208 14.4271 86.5521 14.4688 86.625 14.4688H87.8594C88.0052 14.4688 88.1927 14.4635 88.4219 14.4531C88.4427 14.4531 88.4583 14.4531 88.4688 14.4531C88.6771 14.4531 88.8542 14.5208 89 14.6562C89.1667 14.8125 89.25 15 89.25 15.2188C89.25 15.4375 89.1667 15.625 89 15.7812C88.8438 15.9271 88.6615 16 88.4531 16C88.4427 16 88.4375 16 88.4375 16C88.2188 16 88.0365 16 87.8906 16H79.2656C79.0677 16 78.8594 16 78.6406 16C78.6302 16 78.625 16 78.625 16C78.4062 16 78.2188 15.9271 78.0625 15.7812C77.8958 15.625 77.8125 15.4323 77.8125 15.2031C77.8125 14.9844 77.8958 14.8021 78.0625 14.6562C78.2188 14.5208 78.3958 14.4531 78.5938 14.4531C78.6146 14.4531 78.6302 14.4531 78.6406 14.4531C78.849 14.4635 79.0573 14.4688 79.2656 14.4688H84.6719C84.7552 14.4688 84.8021 14.4271 84.8125 14.3438C85.1875 12.0417 85.4062 10.4531 85.4688 9.57812C85.4792 9.49479 85.4427 9.45312 85.3594 9.45312H80.7344C80.5677 9.45312 80.3698 9.45833 80.1406 9.46875C80.1302 9.46875 80.1198 9.46875 80.1094 9.46875C79.8906 9.46875 79.7031 9.39583 79.5469 9.25C79.3906 9.09375 79.3125 8.90104 79.3125 8.67188C79.3125 8.45312 79.3906 8.26562 79.5469 8.10938C79.7031 7.97396 79.8854 7.90625 80.0938 7.90625C80.1042 7.90625 80.1198 7.90625 80.1406 7.90625C80.3594 7.91667 80.5521 7.92188 80.7188 7.92188H85.2656C85.349 7.92188 85.4479 7.91667 85.5625 7.90625C85.6562 7.89583 85.75 7.89062 85.8438 7.89062C86.2396 7.89062 86.5677 7.95833 86.8281 8.09375C86.9948 8.17708 87.1198 8.30729 87.2031 8.48438C87.276 8.61979 87.3125 8.76042 87.3125 8.90625C87.3125 8.94792 87.3073 8.99479 87.2969 9.04688C87.1927 9.83854 86.9375 11.6042 86.5312 14.3438ZM92.5469 16.1406C92.3594 16.1927 92.1823 16.2188 92.0156 16.2188C91.7135 16.2188 91.4583 16.125 91.25 15.9375C90.9688 15.7083 90.8281 15.3177 90.8281 14.7656C90.8281 14.7448 90.8281 14.7188 90.8281 14.6875C90.8281 14.6458 90.8281 14.599 90.8281 14.5469V5.59375L90.7969 4.82812C90.7969 4.60938 90.8698 4.42188 91.0156 4.26562C91.1719 4.07812 91.3698 3.98438 91.6094 3.98438H91.75C91.9896 3.98438 92.1875 4.07812 92.3438 4.26562C92.4896 4.42188 92.5625 4.60417 92.5625 4.8125C92.5625 4.84375 92.5625 4.875 92.5625 4.90625C92.5417 5.14583 92.5312 5.36979 92.5312 5.57812V14.2188C92.5312 14.25 92.5417 14.276 92.5625 14.2969C92.5833 14.3073 92.6094 14.3125 92.6406 14.3125C94.0052 13.9271 95.4062 13.3125 96.8438 12.4688C98.2917 11.625 99.5156 10.6667 100.516 9.59375C100.641 9.44792 100.797 9.375 100.984 9.375C100.995 9.375 101.01 9.38021 101.031 9.39062C101.24 9.40104 101.401 9.48958 101.516 9.65625C101.641 9.84375 101.703 10.0469 101.703 10.2656C101.703 10.2969 101.698 10.3281 101.688 10.3594C101.677 10.6094 101.589 10.8229 101.422 11C99.3281 13.25 96.401 14.9531 92.6406 16.1094C92.6094 16.1198 92.5781 16.1302 92.5469 16.1406ZM113.141 4.59375C113.234 4.58333 113.318 4.57812 113.391 4.57812C113.745 4.57812 114.047 4.66667 114.297 4.84375C114.443 4.94792 114.531 5.09375 114.562 5.28125C114.573 5.33333 114.578 5.38021 114.578 5.42188C114.578 5.54688 114.547 5.66667 114.484 5.78125C114.432 5.89583 114.391 5.98958 114.359 6.0625C113.63 7.77083 112.781 9.26042 111.812 10.5312C111.76 10.5938 111.766 10.651 111.828 10.7031C113.099 11.8073 114.396 13.1094 115.719 14.6094C115.865 14.7865 115.938 14.9844 115.938 15.2031C115.938 15.2344 115.938 15.2604 115.938 15.2812C115.917 15.5417 115.807 15.7552 115.609 15.9219L115.578 15.9531C115.422 16.0885 115.24 16.1562 115.031 16.1562C115 16.1562 114.964 16.1562 114.922 16.1562C114.682 16.1354 114.484 16.026 114.328 15.8281C113.307 14.526 112.115 13.2396 110.75 11.9688C110.688 11.9167 110.63 11.9167 110.578 11.9688C108.922 13.7188 107.172 15.0833 105.328 16.0625C105.151 16.1562 104.969 16.2031 104.781 16.2031C104.708 16.2031 104.635 16.1979 104.562 16.1875C104.292 16.1354 104.057 16.0104 103.859 15.8125L103.844 15.7969C103.729 15.6719 103.672 15.5312 103.672 15.375C103.672 15.3333 103.677 15.2865 103.688 15.2344C103.729 15.026 103.849 14.875 104.047 14.7812C105.13 14.2812 106.167 13.6458 107.156 12.875C108.156 12.1042 109.031 11.2969 109.781 10.4531C110.312 9.85938 110.812 9.18229 111.281 8.42188C111.75 7.65104 112.089 6.95312 112.297 6.32812C112.297 6.30729 112.286 6.28646 112.266 6.26562C112.255 6.23438 112.234 6.21875 112.203 6.21875H106.453C106.234 6.21875 105.953 6.22917 105.609 6.25C105.589 6.25 105.568 6.25 105.547 6.25C105.328 6.25 105.141 6.17708 104.984 6.03125C104.797 5.86458 104.703 5.66146 104.703 5.42188C104.703 5.18229 104.797 4.97917 104.984 4.8125C105.141 4.66667 105.328 4.59375 105.547 4.59375C105.568 4.59375 105.589 4.59375 105.609 4.59375C105.953 4.61458 106.234 4.625 106.453 4.625H112.391C112.661 4.625 112.911 4.61458 113.141 4.59375ZM123.204 16.2324C121.854 16.2324 120.681 15.8727 119.685 15.1533C119.464 14.9984 119.342 14.777 119.32 14.4893C119.309 14.445 119.303 14.4062 119.303 14.373C119.303 14.1296 119.375 13.9137 119.519 13.7256L119.536 13.709C119.679 13.5098 119.884 13.3936 120.15 13.3604C120.194 13.3604 120.233 13.3604 120.266 13.3604C120.487 13.3604 120.687 13.4212 120.864 13.543C121.495 13.9746 122.164 14.1904 122.872 14.1904C123.548 14.1904 124.084 13.9912 124.483 13.5928C124.892 13.1833 125.097 12.6133 125.097 11.8828C125.097 11.1634 124.903 10.6045 124.516 10.2061C124.14 9.80762 123.625 9.6084 122.972 9.6084C122.507 9.6084 122.076 9.71354 121.677 9.92383C121.478 10.0234 121.284 10.0732 121.096 10.0732C120.897 10.0732 120.703 10.0124 120.515 9.89062C120.161 9.6582 119.984 9.33724 119.984 8.92773C119.984 8.89453 119.984 8.86686 119.984 8.84473L120.233 4.39551C120.255 4.11882 120.366 3.88639 120.565 3.69824C120.764 3.51009 121.002 3.41602 121.279 3.41602H126.043C126.309 3.41602 126.536 3.51562 126.724 3.71484C126.923 3.90299 127.023 4.12988 127.023 4.39551V4.52832C127.023 4.80501 126.923 5.03743 126.724 5.22559C126.536 5.41374 126.309 5.50781 126.043 5.50781H122.574C122.496 5.50781 122.452 5.55208 122.441 5.64062L122.225 8.04785C122.225 8.08105 122.236 8.10872 122.258 8.13086C122.28 8.14193 122.302 8.14193 122.325 8.13086C122.778 7.92057 123.243 7.81543 123.719 7.81543C124.848 7.81543 125.778 8.15853 126.508 8.84473C127.239 9.51986 127.604 10.5104 127.604 11.8164C127.604 12.724 127.394 13.5208 126.973 14.207C126.564 14.8822 126.027 15.3913 125.363 15.7344C124.71 16.0664 123.99 16.2324 123.204 16.2324ZM134.001 10.4375C133.47 11.1042 132.772 11.4375 131.908 11.4375C131.043 11.4375 130.345 11.1042 129.814 10.4375C129.293 9.76042 129.033 8.83333 129.033 7.65625C129.033 6.5 129.293 5.59375 129.814 4.9375C130.345 4.27083 131.043 3.9375 131.908 3.9375C132.772 3.9375 133.47 4.27083 134.001 4.9375C134.533 5.59375 134.798 6.5 134.798 7.65625C134.798 8.83333 134.533 9.76042 134.001 10.4375ZM131.017 9.51562C131.246 9.91146 131.543 10.1094 131.908 10.1094C132.272 10.1094 132.569 9.91146 132.798 9.51562C133.027 9.10938 133.142 8.48958 133.142 7.65625C133.142 6.83333 133.027 6.22917 132.798 5.84375C132.579 5.45833 132.283 5.26562 131.908 5.26562C131.543 5.26562 131.246 5.45833 131.017 5.84375C130.798 6.22917 130.689 6.83333 130.689 7.65625C130.689 8.48958 130.798 9.10938 131.017 9.51562ZM133.001 16.2188C132.845 16.2188 132.725 16.151 132.642 16.0156C132.6 15.9531 132.579 15.8854 132.579 15.8125C132.579 15.75 132.595 15.6823 132.626 15.6094L138.423 4.54688C138.517 4.35938 138.652 4.21354 138.829 4.10938C139.017 3.99479 139.22 3.9375 139.439 3.9375C139.595 3.9375 139.715 4.00521 139.798 4.14062C139.882 4.27604 139.887 4.41146 139.814 4.54688L134.001 15.6094C133.908 15.7969 133.767 15.9427 133.579 16.0469C133.402 16.1615 133.21 16.2188 133.001 16.2188ZM142.595 15.2031C142.064 15.8802 141.371 16.2188 140.517 16.2188C139.663 16.2188 138.97 15.8802 138.439 15.2031C137.908 14.526 137.642 13.6094 137.642 12.4531C137.642 11.276 137.908 10.3594 138.439 9.70312C138.97 9.03646 139.663 8.70312 140.517 8.70312C141.382 8.70312 142.079 9.03646 142.611 9.70312C143.142 10.3698 143.408 11.2865 143.408 12.4531C143.408 13.6094 143.137 14.526 142.595 15.2031ZM139.626 14.2812C139.856 14.6771 140.152 14.875 140.517 14.875C140.882 14.875 141.178 14.6771 141.408 14.2812C141.637 13.8854 141.751 13.276 141.751 12.4531C141.751 11.6198 141.637 11.0104 141.408 10.625C141.189 10.2292 140.892 10.0312 140.517 10.0312C140.142 10.0312 139.84 10.2292 139.611 10.625C139.392 11.0104 139.283 11.6198 139.283 12.4531C139.283 13.276 139.397 13.8854 139.626 14.2812ZM151.236 9.34375C151.163 9.34375 151.126 9.38542 151.126 9.46875V10.3438C151.126 10.4271 151.163 10.4688 151.236 10.4688H156.173C156.257 10.4688 156.298 10.4271 156.298 10.3438V9.46875C156.298 9.38542 156.257 9.34375 156.173 9.34375H151.236ZM157.033 11.4219C157.053 11.4115 157.059 11.3958 157.048 11.375C157.038 11.3542 157.022 11.3438 157.001 11.3438H154.361C154.34 11.3438 154.324 11.3542 154.314 11.375C154.303 11.3958 154.303 11.4167 154.314 11.4375C154.647 11.8021 155.059 12.1458 155.548 12.4688C155.621 12.5104 155.689 12.5052 155.751 12.4531C156.199 12.1198 156.626 11.776 157.033 11.4219ZM154.251 14.4688C154.251 14.6562 154.178 14.8229 154.033 14.9688C153.897 15.1042 153.731 15.1719 153.533 15.1719C153.345 15.1719 153.178 15.1042 153.033 14.9688C152.897 14.8229 152.829 14.6562 152.829 14.4688V12.7188C152.829 12.6979 152.819 12.6823 152.798 12.6719C152.777 12.6615 152.757 12.6667 152.736 12.6875C151.975 13.2708 151.106 13.7917 150.126 14.25C150.001 14.3021 149.882 14.3281 149.767 14.3281C149.694 14.3281 149.621 14.3177 149.548 14.2969C149.35 14.2448 149.184 14.1406 149.048 13.9844C148.944 13.849 148.913 13.6979 148.954 13.5312C148.996 13.3646 149.095 13.25 149.251 13.1875C150.501 12.6979 151.543 12.1094 152.376 11.4219C152.397 11.4115 152.402 11.3958 152.392 11.375C152.382 11.3542 152.366 11.3438 152.345 11.3438H150.673C150.413 11.3438 150.194 11.2552 150.017 11.0781C149.84 10.8906 149.751 10.6719 149.751 10.4219V9.39062C149.751 9.13021 149.84 8.91146 150.017 8.73438C150.194 8.55729 150.413 8.46875 150.673 8.46875H156.845C157.095 8.46875 157.309 8.55729 157.486 8.73438C157.673 8.91146 157.767 9.13021 157.767 9.39062V10.8438C157.767 10.9167 157.798 10.9792 157.861 11.0312L157.908 11.0625C158.106 11.1979 158.204 11.3854 158.204 11.625C158.204 11.8333 158.121 12.0052 157.954 12.1406C157.538 12.4531 157.126 12.7344 156.72 12.9844C156.699 12.9948 156.689 13.0156 156.689 13.0469C156.699 13.0677 156.715 13.0833 156.736 13.0938C157.257 13.3125 157.793 13.4896 158.345 13.625C158.491 13.6667 158.585 13.7604 158.626 13.9062C158.678 14.0417 158.658 14.1719 158.564 14.2969C158.439 14.4635 158.283 14.5885 158.095 14.6719C157.991 14.7135 157.887 14.7344 157.783 14.7344C157.699 14.7344 157.616 14.7188 157.533 14.6875C156.293 14.3021 155.225 13.724 154.329 12.9531C154.309 12.9427 154.288 12.9427 154.267 12.9531C154.257 12.9635 154.251 12.9792 154.251 13V14.4688ZM158.517 6.76562C158.663 6.76562 158.788 6.81771 158.892 6.92188C158.996 7.02604 159.048 7.15104 159.048 7.29688C159.048 7.44271 158.996 7.56771 158.892 7.67188C158.788 7.77604 158.663 7.82812 158.517 7.82812H148.97C148.824 7.82812 148.699 7.77604 148.595 7.67188C148.491 7.56771 148.439 7.44271 148.439 7.29688C148.439 7.15104 148.491 7.02604 148.595 6.92188C148.699 6.81771 148.824 6.76562 148.97 6.76562H158.517ZM156.798 5.25C156.882 5.25 156.923 5.20833 156.923 5.125V4.03125C156.923 3.95833 156.882 3.92188 156.798 3.92188H155.642C155.559 3.92188 155.517 3.95833 155.517 4.03125V5.125C155.517 5.20833 155.559 5.25 155.642 5.25H156.798ZM154.251 5.25C154.335 5.25 154.376 5.20833 154.376 5.125V4.03125C154.376 3.95833 154.335 3.92188 154.251 3.92188H153.126C153.053 3.92188 153.017 3.95833 153.017 4.03125V5.125C153.017 5.20833 153.053 5.25 153.126 5.25H154.251ZM151.72 5.25C151.803 5.25 151.845 5.20833 151.845 5.125V4.03125C151.845 3.95833 151.803 3.92188 151.72 3.92188H150.642C150.569 3.92188 150.533 3.95833 150.533 4.03125V5.125C150.533 5.20833 150.569 5.25 150.642 5.25H151.72ZM157.329 3.03125C157.579 3.03125 157.793 3.11979 157.97 3.29688C158.158 3.47396 158.251 3.69271 158.251 3.95312V5.20312C158.251 5.46354 158.158 5.68229 157.97 5.85938C157.793 6.03646 157.579 6.125 157.329 6.125H150.173C149.923 6.125 149.704 6.03646 149.517 5.85938C149.34 5.68229 149.251 5.46354 149.251 5.20312V3.95312C149.251 3.69271 149.34 3.47396 149.517 3.29688C149.704 3.11979 149.923 3.03125 150.173 3.03125H157.329ZM148.001 4.92188C148.106 5.05729 148.158 5.20833 148.158 5.375C148.158 5.41667 148.158 5.45312 148.158 5.48438C148.126 5.70312 148.022 5.88021 147.845 6.01562C147.72 6.10938 147.585 6.15625 147.439 6.15625C147.397 6.15625 147.356 6.15104 147.314 6.14062C147.116 6.10938 146.954 6.01042 146.829 5.84375C146.423 5.33333 145.923 4.80729 145.329 4.26562C145.194 4.15104 145.126 4.01042 145.126 3.84375C145.126 3.65625 145.204 3.50521 145.361 3.39062C145.517 3.27604 145.694 3.21875 145.892 3.21875C145.902 3.21875 145.913 3.21875 145.923 3.21875C146.132 3.21875 146.314 3.28646 146.47 3.42188C147.085 3.94271 147.595 4.44271 148.001 4.92188ZM147.095 8.78125C147.356 8.78125 147.574 8.875 147.751 9.0625C147.928 9.23958 148.017 9.45312 148.017 9.70312V13.7812C148.017 13.8646 148.038 13.9375 148.079 14C148.746 14.9792 149.97 15.5052 151.751 15.5781C152.533 15.6198 153.361 15.6406 154.236 15.6406C155.559 15.6406 156.991 15.599 158.533 15.5156C158.71 15.5052 158.845 15.5729 158.939 15.7188C159.012 15.8125 159.048 15.9115 159.048 16.0156C159.048 16.0677 159.038 16.125 159.017 16.1875C158.944 16.4062 158.819 16.5885 158.642 16.7344C158.465 16.8802 158.267 16.9531 158.048 16.9531C156.715 16.9948 155.481 17.0156 154.345 17.0156C153.408 17.0156 152.538 17 151.736 16.9688C150.746 16.9375 149.908 16.7812 149.22 16.5C148.533 16.2292 147.949 15.8073 147.47 15.2344C147.418 15.1719 147.366 15.1667 147.314 15.2188C146.876 15.6354 146.387 16.0885 145.845 16.5781C145.731 16.6823 145.595 16.7344 145.439 16.7344C145.397 16.7344 145.356 16.7292 145.314 16.7188C145.106 16.6771 144.954 16.5677 144.861 16.3906C144.798 16.2552 144.767 16.1146 144.767 15.9688C144.767 15.8854 144.777 15.8021 144.798 15.7188C144.861 15.5 144.986 15.3177 145.173 15.1719C145.632 14.8281 146.074 14.4688 146.501 14.0938C146.564 14.0417 146.595 13.9792 146.595 13.9062V10.2812C146.595 10.1979 146.559 10.1562 146.486 10.1562H145.361C145.173 10.1562 145.012 10.0885 144.876 9.95312C144.741 9.81771 144.673 9.65625 144.673 9.46875C144.673 9.28125 144.741 9.11979 144.876 8.98438C145.012 8.84896 145.173 8.78125 145.361 8.78125H147.095ZM172.845 3.76562C173.053 3.76562 173.225 3.83854 173.361 3.98438C173.496 4.11979 173.564 4.28646 173.564 4.48438C173.564 4.68229 173.496 4.85417 173.361 5C173.225 5.13542 173.053 5.20312 172.845 5.20312H163.033C162.835 5.20312 162.663 5.13542 162.517 5C162.382 4.85417 162.314 4.68229 162.314 4.48438C162.314 4.28646 162.382 4.11979 162.517 3.98438C162.663 3.83854 162.835 3.76562 163.033 3.76562H172.845ZM171.283 15.5781H173.095C173.356 15.5781 173.533 15.4531 173.626 15.2031C173.72 14.9531 173.783 14.4062 173.814 13.5625C173.824 13.3958 173.902 13.276 174.048 13.2031C174.204 13.1198 174.361 13.1094 174.517 13.1719C174.725 13.2656 174.892 13.4062 175.017 13.5938C175.132 13.7604 175.189 13.9375 175.189 14.125C175.189 14.1458 175.184 14.1719 175.173 14.2031C175.079 15.2865 174.892 16.0208 174.611 16.4062C174.34 16.7917 173.871 16.9844 173.204 16.9844H171.079C170.298 16.9844 169.767 16.8385 169.486 16.5469C169.215 16.2656 169.079 15.724 169.079 14.9219V9.70312C169.079 9.61979 169.038 9.57812 168.954 9.57812H166.454C166.382 9.57812 166.34 9.61979 166.329 9.70312C166.267 10.3802 166.189 10.9792 166.095 11.5C166.012 12.0208 165.871 12.5625 165.673 13.125C165.486 13.6875 165.251 14.1875 164.97 14.625C164.689 15.0521 164.319 15.4688 163.861 15.875C163.402 16.2708 162.871 16.6198 162.267 16.9219C162.152 16.974 162.038 17 161.923 17C161.84 17 161.757 16.9844 161.673 16.9531C161.475 16.8906 161.309 16.7656 161.173 16.5781C161.079 16.474 161.033 16.3594 161.033 16.2344C161.033 16.1927 161.038 16.151 161.048 16.1094C161.09 15.9323 161.189 15.8073 161.345 15.7344C161.866 15.4844 162.319 15.1927 162.704 14.8594C163.09 14.5156 163.397 14.1667 163.626 13.8125C163.866 13.4479 164.064 13.026 164.22 12.5469C164.387 12.0677 164.501 11.6198 164.564 11.2031C164.637 10.776 164.699 10.276 164.751 9.70312C164.751 9.61979 164.715 9.57812 164.642 9.57812H161.626C161.418 9.57812 161.241 9.51042 161.095 9.375C160.96 9.22917 160.892 9.05729 160.892 8.85938C160.892 8.66146 160.96 8.49479 161.095 8.35938C161.241 8.21354 161.418 8.14062 161.626 8.14062H174.251C174.449 8.14062 174.616 8.21354 174.751 8.35938C174.897 8.49479 174.97 8.66146 174.97 8.85938C174.97 9.05729 174.897 9.22917 174.751 9.375C174.616 9.51042 174.449 9.57812 174.251 9.57812H170.736C170.652 9.57812 170.611 9.61979 170.611 9.70312V14.9062C170.611 15.1979 170.647 15.3854 170.72 15.4688C170.803 15.5417 170.991 15.5781 171.283 15.5781ZM181.376 7.57812C181.408 7.36979 181.507 7.20833 181.673 7.09375C181.809 6.98958 181.954 6.9375 182.111 6.9375C182.152 6.9375 182.189 6.9375 182.22 6.9375C182.418 6.96875 182.574 7.0625 182.689 7.21875C182.783 7.34375 182.829 7.47917 182.829 7.625C182.829 7.66667 182.824 7.71354 182.814 7.76562C182.522 9.25521 182.137 10.5833 181.658 11.75C181.637 11.8229 181.647 11.8906 181.689 11.9531C182.199 12.651 182.621 13.2812 182.954 13.8438C183.038 13.9896 183.079 14.1406 183.079 14.2969C183.079 14.349 183.074 14.4062 183.064 14.4688C183.022 14.6979 182.913 14.8854 182.736 15.0312C182.621 15.125 182.491 15.1719 182.345 15.1719C182.303 15.1719 182.257 15.1667 182.204 15.1562C182.017 15.1146 181.876 15.0104 181.783 14.8438C181.543 14.4062 181.267 13.9479 180.954 13.4688C180.934 13.4479 180.908 13.4375 180.876 13.4375C180.856 13.4375 180.84 13.4531 180.829 13.4844C180.09 14.7552 179.163 15.8229 178.048 16.6875C177.913 16.7917 177.762 16.8438 177.595 16.8438C177.564 16.8438 177.527 16.8385 177.486 16.8281C177.277 16.7969 177.1 16.6979 176.954 16.5312C176.84 16.4062 176.783 16.2656 176.783 16.1094C176.783 16.0781 176.783 16.0521 176.783 16.0312C176.803 15.8333 176.897 15.6771 177.064 15.5625C178.241 14.7083 179.194 13.5833 179.923 12.1875C179.954 12.1146 179.949 12.0469 179.908 11.9844C179.189 11.026 178.449 10.1146 177.689 9.25C177.574 9.125 177.517 8.98438 177.517 8.82812C177.517 8.61979 177.595 8.45312 177.751 8.32812C177.887 8.22396 178.038 8.17188 178.204 8.17188C178.225 8.17188 178.246 8.17188 178.267 8.17188C178.454 8.18229 178.611 8.25521 178.736 8.39062C179.267 8.97396 179.866 9.66667 180.533 10.4688C180.553 10.4896 180.574 10.5 180.595 10.5C180.626 10.4896 180.642 10.474 180.642 10.4531C180.944 9.57812 181.189 8.61979 181.376 7.57812ZM190.501 6.25C190.699 6.25 190.866 6.32292 191.001 6.46875C191.147 6.60417 191.22 6.77604 191.22 6.98438C191.22 7.18229 191.147 7.35417 191.001 7.5C190.866 7.63542 190.699 7.70312 190.501 7.70312H189.533C189.449 7.70312 189.408 7.73958 189.408 7.8125V15.3281C189.408 15.776 189.35 16.1198 189.236 16.3594C189.132 16.6094 188.949 16.8021 188.689 16.9375C188.303 17.1146 187.663 17.2135 186.767 17.2344C186.757 17.2344 186.746 17.2344 186.736 17.2344C186.517 17.2344 186.319 17.1615 186.142 17.0156C185.954 16.8698 185.824 16.6771 185.751 16.4375C185.731 16.375 185.72 16.3125 185.72 16.25C185.72 16.1354 185.757 16.026 185.829 15.9219C185.944 15.7656 186.095 15.6875 186.283 15.6875C186.553 15.6875 186.788 15.6875 186.986 15.6875C187.236 15.6875 187.423 15.6875 187.548 15.6875C187.694 15.6875 187.793 15.6615 187.845 15.6094C187.908 15.5573 187.939 15.4635 187.939 15.3281V7.8125C187.939 7.73958 187.902 7.70312 187.829 7.70312H184.673C184.413 7.70312 184.194 7.61458 184.017 7.4375C183.84 7.25 183.751 7.03125 183.751 6.78125V6.60938C183.751 6.53646 183.71 6.5 183.626 6.5H177.486C177.298 6.5 177.137 6.43229 177.001 6.29688C176.866 6.16146 176.798 6 176.798 5.8125C176.798 5.61458 176.866 5.45312 177.001 5.32812C177.137 5.19271 177.298 5.125 177.486 5.125H179.595C179.678 5.125 179.72 5.08333 179.72 5V3.3125C179.72 3.11458 179.788 2.94792 179.923 2.8125C180.069 2.66667 180.241 2.59375 180.439 2.59375C180.637 2.59375 180.803 2.66667 180.939 2.8125C181.085 2.94792 181.158 3.11458 181.158 3.3125V5C181.158 5.08333 181.194 5.125 181.267 5.125H183.329C183.579 5.125 183.793 5.21354 183.97 5.39062C184.158 5.56771 184.251 5.78646 184.251 6.04688V6.14062C184.251 6.21354 184.288 6.25 184.361 6.25H187.829C187.902 6.25 187.939 6.21354 187.939 6.14062V3.3125C187.939 3.10417 188.012 2.93229 188.158 2.79688C188.303 2.65104 188.475 2.57812 188.673 2.57812C188.882 2.57812 189.053 2.65104 189.189 2.79688C189.335 2.93229 189.408 3.10417 189.408 3.3125V6.14062C189.408 6.21354 189.449 6.25 189.533 6.25H190.501ZM186.517 11.9375C186.548 12.0312 186.564 12.125 186.564 12.2188C186.564 12.3125 186.543 12.4115 186.501 12.5156C186.418 12.7031 186.283 12.8438 186.095 12.9375C186.012 12.9896 185.923 13.0156 185.829 13.0156C185.757 13.0156 185.678 12.9948 185.595 12.9531C185.428 12.8802 185.309 12.7552 185.236 12.5781C184.965 11.8385 184.6 11.0885 184.142 10.3281C184.079 10.224 184.048 10.1198 184.048 10.0156C184.048 9.96354 184.059 9.90625 184.079 9.84375C184.121 9.66667 184.225 9.54167 184.392 9.46875C184.496 9.41667 184.606 9.39062 184.72 9.39062C184.793 9.39062 184.866 9.40104 184.939 9.42188C185.126 9.47396 185.272 9.57812 185.376 9.73438C185.866 10.5156 186.246 11.25 186.517 11.9375ZM196.001 6.875C195.928 6.875 195.892 6.91667 195.892 7V8.32812C195.892 8.41146 195.928 8.45312 196.001 8.45312H199.017C199.1 8.45312 199.142 8.41146 199.142 8.32812V7C199.142 6.91667 199.1 6.875 199.017 6.875H196.001ZM200.392 4.82812C200.402 4.80729 200.402 4.78646 200.392 4.76562C200.382 4.74479 200.361 4.73438 200.329 4.73438H197.251C197.178 4.73438 197.116 4.76562 197.064 4.82812C196.772 5.11979 196.465 5.41146 196.142 5.70312C196.121 5.71354 196.116 5.72917 196.126 5.75C196.137 5.77083 196.152 5.78125 196.173 5.78125H199.533C199.616 5.78125 199.684 5.75 199.736 5.6875C199.934 5.44792 200.152 5.16146 200.392 4.82812ZM203.939 8.45312C204.012 8.45312 204.048 8.41146 204.048 8.32812V7C204.048 6.91667 204.012 6.875 203.939 6.875H200.72C200.637 6.875 200.595 6.91667 200.595 7V8.32812C200.595 8.41146 200.637 8.45312 200.72 8.45312H203.939ZM205.001 10.1406C205.178 10.0156 205.376 9.95312 205.595 9.95312C205.595 9.95312 205.6 9.95312 205.611 9.95312C205.819 9.95312 206.007 10.0156 206.173 10.1406C206.319 10.2448 206.392 10.3854 206.392 10.5625C206.392 10.75 206.314 10.8906 206.158 10.9844C205.262 11.5677 204.309 12.1146 203.298 12.625C203.225 12.6562 203.215 12.7031 203.267 12.7656C204.152 13.8698 205.225 14.6979 206.486 15.25C206.652 15.3229 206.757 15.4531 206.798 15.6406C206.809 15.6823 206.814 15.7292 206.814 15.7812C206.814 15.9062 206.777 16.0208 206.704 16.125C206.559 16.3125 206.382 16.4375 206.173 16.5C206.079 16.5312 205.991 16.5469 205.908 16.5469C205.783 16.5469 205.658 16.5208 205.533 16.4688C203.043 15.2292 201.293 12.9844 200.283 9.73438C200.251 9.65104 200.204 9.63021 200.142 9.67188C199.725 9.93229 199.293 10.1667 198.845 10.375C198.824 10.3958 198.809 10.4167 198.798 10.4375C198.798 10.4583 198.809 10.4792 198.829 10.5C199.579 11.0104 200.178 11.5938 200.626 12.25C201.085 12.9062 201.361 13.526 201.454 14.1094C201.486 14.3281 201.501 14.5365 201.501 14.7344C201.501 15.0885 201.454 15.4167 201.361 15.7188C201.194 16.2188 200.913 16.5938 200.517 16.8438C200.038 17.1562 199.47 17.3125 198.814 17.3125C198.668 17.3125 198.475 17.3073 198.236 17.2969C198.048 17.2969 197.876 17.2292 197.72 17.0938C197.574 16.9583 197.47 16.7917 197.408 16.5938C197.366 16.4479 197.387 16.3073 197.47 16.1719C197.564 16.0469 197.689 15.9896 197.845 16C198.095 16.0104 198.34 16.0156 198.579 16.0156C199.048 16.0156 199.387 15.9323 199.595 15.7656C199.814 15.6094 199.965 15.375 200.048 15.0625C200.079 14.9271 200.095 14.7865 200.095 14.6406C200.095 14.4323 200.059 14.2031 199.986 13.9531C199.965 13.8802 199.923 13.8646 199.861 13.9062C198.298 15.0521 196.444 15.9792 194.298 16.6875C194.204 16.7188 194.111 16.7344 194.017 16.7344C193.913 16.7344 193.809 16.7135 193.704 16.6719C193.517 16.599 193.356 16.4792 193.22 16.3125C193.126 16.1875 193.1 16.0521 193.142 15.9062C193.184 15.7604 193.283 15.6667 193.439 15.625C194.522 15.3229 195.6 14.9271 196.673 14.4375C197.746 13.9479 198.637 13.4323 199.345 12.8906C199.408 12.8385 199.418 12.7812 199.376 12.7188C199.262 12.5521 199.142 12.4062 199.017 12.2812C198.965 12.2188 198.902 12.2083 198.829 12.25C197.621 13.0208 196.168 13.6562 194.47 14.1562C194.397 14.1771 194.319 14.1875 194.236 14.1875C194.132 14.1875 194.027 14.1667 193.923 14.125C193.746 14.0625 193.595 13.9531 193.47 13.7969C193.376 13.6823 193.35 13.5573 193.392 13.4219C193.444 13.276 193.538 13.1875 193.673 13.1562C195.434 12.7292 196.892 12.1875 198.048 11.5312C198.121 11.4896 198.126 11.4479 198.064 11.4062C197.928 11.2917 197.757 11.1667 197.548 11.0312C197.475 10.9896 197.402 10.9844 197.329 11.0156C196.413 11.3594 195.434 11.6719 194.392 11.9531C194.309 11.974 194.231 11.9844 194.158 11.9844C194.043 11.9844 193.934 11.9635 193.829 11.9219C193.642 11.849 193.491 11.7292 193.376 11.5625C193.293 11.4375 193.277 11.3073 193.329 11.1719C193.382 11.026 193.481 10.9375 193.626 10.9062C195.262 10.5625 196.694 10.1302 197.923 9.60938C197.934 9.60938 197.939 9.60417 197.939 9.59375C197.939 9.57292 197.934 9.5625 197.923 9.5625H195.423C195.163 9.5625 194.944 9.47396 194.767 9.29688C194.59 9.11979 194.501 8.90104 194.501 8.64062V7.09375C194.501 7.07292 194.491 7.05729 194.47 7.04688C194.449 7.03646 194.428 7.03646 194.408 7.04688C194.408 7.05729 194.397 7.06771 194.376 7.07812C194.366 7.08854 194.356 7.09375 194.345 7.09375C194.21 7.17708 194.074 7.21875 193.939 7.21875C193.887 7.21875 193.835 7.21354 193.783 7.20312C193.585 7.17188 193.413 7.07812 193.267 6.92188C193.163 6.81771 193.111 6.6875 193.111 6.53125C193.111 6.33333 193.194 6.18229 193.361 6.07812C194.673 5.26562 195.777 4.28646 196.673 3.14062C196.829 2.95312 197.017 2.81771 197.236 2.73438C197.382 2.67188 197.527 2.64062 197.673 2.64062C197.746 2.64062 197.824 2.65104 197.908 2.67188C198.095 2.71354 198.22 2.81771 198.283 2.98438C198.314 3.04688 198.329 3.10938 198.329 3.17188C198.329 3.27604 198.293 3.375 198.22 3.46875C198.199 3.48958 198.184 3.51042 198.173 3.53125C198.152 3.55208 198.147 3.57292 198.158 3.59375C198.168 3.60417 198.184 3.60938 198.204 3.60938H201.251C201.272 3.60938 201.293 3.60938 201.314 3.60938C201.449 3.56771 201.579 3.58854 201.704 3.67188L202.033 3.875C202.168 3.96875 202.251 4.09896 202.283 4.26562C202.324 4.42188 202.298 4.56771 202.204 4.70312C201.986 5.01562 201.741 5.34375 201.47 5.6875C201.46 5.70833 201.454 5.72917 201.454 5.75C201.465 5.77083 201.486 5.78125 201.517 5.78125H204.595C204.856 5.78125 205.074 5.86979 205.251 6.04688C205.428 6.22396 205.517 6.44271 205.517 6.70312V8.64062C205.517 8.90104 205.428 9.11979 205.251 9.29688C205.074 9.47396 204.856 9.5625 204.595 9.5625H201.689C201.658 9.5625 201.632 9.57812 201.611 9.60938C201.6 9.63021 201.6 9.65625 201.611 9.6875C201.85 10.3854 202.142 11.0312 202.486 11.625C202.527 11.6979 202.579 11.7135 202.642 11.6719C203.465 11.2031 204.251 10.6927 205.001 10.1406Z" fill="#E71311"/>
<path d="M10 18C14.4183 18 18 14.4183 18 10C18 5.58172 14.4183 2 10 2C5.58172 2 2 5.58172 2 10C2 14.4183 5.58172 18 10 18Z" fill="#E60012"/>
<path d="M13.3744 12.6161H12.5782C12.3886 12.6161 12.2749 12.7678 12.2749 12.9194V13.7915C12.2749 14.0189 12.0853 14.2085 11.8578 14.2085H8.10427C7.87678 14.2085 7.68721 14.0189 7.68721 13.7915V6.20852C7.68721 5.98103 7.87678 5.79145 8.10427 5.79145H11.8578C12.0853 5.79145 12.2749 5.98103 12.2749 6.20852V7.08055C12.2749 7.27013 12.4265 7.38387 12.5782 7.38387H13.3744C13.564 7.38387 13.6777 7.23221 13.6777 7.08055V6.24643C13.6777 5.22273 12.8436 4.38861 11.8199 4.38861H8.14218C7.11849 4.38861 6.28436 5.22273 6.28436 6.24643V13.7535C6.28436 14.7772 7.11849 15.6114 8.14218 15.6114H11.8199C12.8436 15.6114 13.6777 14.7772 13.6777 13.7535V12.9194C13.7156 12.7298 13.564 12.6161 13.3744 12.6161Z" fill="white"/>
<path d="M11.1374 10.5308C11.2512 10.6446 11.4028 10.6446 11.5166 10.5308L18.0758 3.97157C18.1896 3.85782 18.3412 3.85782 18.455 3.97157L19.0995 4.61612C19.2133 4.72986 19.2133 4.88152 19.0995 4.99527L12.1232 11.9716C11.6682 12.4265 10.9858 12.4265 10.5308 11.9716L8.40757 9.84835C8.29383 9.7346 8.29383 9.58294 8.40757 9.4692L9.05212 8.82465C9.16587 8.71091 9.31753 8.71091 9.43127 8.82465L11.1374 10.5308Z" fill="#EBCA00"/>
</svg>
